<svg width="90" height="90" viewBox="0 0 90 90" fill="none" xmlns="http://www.w3.org/2000/svg">
<path d="M4.07031 4.49023H85.8308V85.2909H4.07031V4.49023Z" fill="url(#paint0_radial_167_586)"/>
<path d="M4.07031 4.491H85.8308V85.2916H4.07031V4.491ZM0.354736 89.0658H89.5643V0.716797H0.354736V89.0658ZM63.4659 43.3036C65.3594 43.3036 66.0383 43.3036 66.2169 43.231C66.2169 42.9589 66.2883 42.7774 66.2883 42.596C66.2883 40.5637 65.3237 36.7895 61.4652 36.7895C57.8926 36.7895 56.3742 39.9649 55.9991 43.3218H63.4659V43.3036ZM55.9276 48.475C55.9991 53.5738 58.3749 57.0033 64.0376 57.0033C66.2347 57.0033 68.1283 56.6948 70.0932 55.842C70.3612 55.7331 70.5398 55.7694 70.5398 56.1141V60.8319C70.5398 61.2129 70.4326 61.3944 70.1647 61.594C68.1997 62.5738 65.7346 63.0275 62.6978 63.0275C52.8908 63.0275 49.211 55.6605 49.211 47.477C49.211 38.5677 53.7483 31.2733 61.7332 31.2733C69.8431 31.2733 72.6656 38.1867 72.6656 43.8117C72.6656 45.6262 72.5584 47.096 72.3619 47.8218C72.2904 48.1302 72.1832 48.2391 71.8796 48.3117C71.1293 48.4206 68.95 48.5839 65.681 48.5839H55.9455V48.475H55.9276ZM35.9921 44.6282C34.956 40.4367 32.4194 31.3096 31.4905 26.8822H31.4191C30.6331 31.2915 28.5967 38.7673 27.0783 44.6282H35.9921ZM25.5599 50.7432L22.6303 62.0295C22.5589 62.3379 22.4517 62.4468 22.0766 62.4468H16.5925C16.2174 62.4468 16.1459 62.338 16.2174 61.8843L26.7746 24.3963C26.9533 23.7249 27.0783 23.1806 27.1498 21.2935C27.1498 21.0213 27.2569 20.9124 27.4534 20.9124H35.2597C35.5277 20.9124 35.6348 20.985 35.7063 21.2935L47.514 61.9569C47.5854 62.2654 47.514 62.4468 47.2103 62.4468H41.0832C40.7795 62.4468 40.6008 62.338 40.5294 62.0658L37.4748 50.7432H25.5599Z" fill="#D8A1FF"/>
<defs>
<radialGradient id="paint0_radial_167_586" cx="0" cy="0" r="1" gradientUnits="userSpaceOnUse" gradientTransform="translate(31.0228 22.6056) scale(62.1407 61.1128)">
<stop stop-color="#442F55" stop-opacity="0.98"/>
<stop offset="1" stop-color="#12002C"/>
</radialGradient>
</defs>
</svg>
