<svg width="90" height="89" viewBox="0 0 90 89" fill="none" xmlns="http://www.w3.org/2000/svg">
<path d="M3.93408 4.46484H85.5995V85.1156H3.93408V4.46484Z" fill="url(#paint0_radial_167_561)"/>
<path d="M3.93406 4.46505H85.5994V85.1157H3.93406V4.46505ZM0.221191 88.8855H89.2944V0.695312H0.221191V88.8855ZM60.2876 36.8884C57.3602 36.8884 56.3605 38.3927 56.3605 39.6432C56.3605 41.0025 57.021 41.945 60.9659 44.0111C66.7852 46.8746 68.6059 49.6294 68.6059 53.6529C68.6059 59.6881 64.0719 62.9323 57.9492 62.9323C54.7183 62.9323 51.9337 62.2617 50.345 61.3192C50.0772 61.2105 50.0415 61.0111 50.0415 60.7212V55.1572C50.0415 54.7766 50.22 54.6678 50.4878 54.8491C52.8262 56.3896 55.5037 57.0783 57.9492 57.0783C60.8767 57.0783 62.1084 55.8277 62.1084 54.1422C62.1084 52.783 61.2515 51.5868 57.503 49.6113C52.2371 47.0559 50.0415 44.4642 50.0415 40.1145C50.0415 35.2573 53.7901 31.2157 60.2876 31.2157C63.4828 31.2157 65.7141 31.705 66.928 32.2669C67.2314 32.4481 67.3028 32.7562 67.3028 33.0281V38.1933C67.3028 38.5014 67.1243 38.6827 66.7495 38.5739C65.1072 37.5228 62.6974 36.8884 60.2876 36.8884ZM28.3712 41.365C29.228 41.4375 29.8885 41.4375 31.3701 41.4375C35.7077 41.4375 39.7954 39.897 39.7954 33.898C39.7954 29.1133 36.868 26.7029 31.9234 26.7029C30.4418 26.7029 29.0317 26.7754 28.3533 26.8116L28.3712 41.365ZM21.7487 21.3564C21.7487 21.0845 22.2664 20.9033 22.5698 20.9033C24.9439 20.7945 28.4783 20.7221 32.1376 20.7221C42.4194 20.7221 46.4358 26.4492 46.4358 33.753C46.4358 43.3224 39.5991 47.4365 31.2094 47.4365C29.7992 47.4365 29.3173 47.364 28.3176 47.364V61.8267C28.3176 62.1348 28.2105 62.2798 27.8714 62.2798H22.195C21.8915 62.2798 21.7487 62.1711 21.7487 61.8267V21.3564Z" fill="#31C5F0"/>
<defs>
<radialGradient id="paint0_radial_167_561" cx="0" cy="0" r="1" gradientUnits="userSpaceOnUse" gradientTransform="translate(30.8385 22.5589) scale(62.0565 61.0022)">
<stop stop-color="#34364E" stop-opacity="0.98"/>
<stop offset="1" stop-color="#0C0824"/>
</radialGradient>
</defs>
</svg>
