<svg width="90" height="90" viewBox="0 0 90 90" fill="none" xmlns="http://www.w3.org/2000/svg">
<path d="M4.00342 4.49023H85.7639V85.2909H4.00342V4.49023Z" fill="url(#paint0_radial_167_573)"/>
<path d="M4.00341 4.491H85.7639V85.2916H4.00341V4.491ZM0.287842 89.0658H89.4973V0.716797H0.287842V89.0658ZM58.7188 32.2169C58.7188 31.9084 58.826 31.7633 59.1654 31.7633H65.0067C65.3104 31.7633 65.4533 31.8721 65.4533 32.2169V62.0113C65.4533 62.3198 65.3818 62.465 65.0067 62.465H59.2368C58.8617 62.465 58.7545 62.2835 58.7545 61.975V32.2169H58.7188ZM58.3079 23.6342C58.3079 21.2209 59.9871 19.7874 62.095 19.7874C64.3636 19.7874 65.882 21.3298 65.882 23.6342C65.882 26.1201 64.2922 27.481 62.0235 27.481C59.8799 27.4991 58.3079 26.1382 58.3079 23.6342ZM41.5879 44.6282C40.5518 40.4367 38.0866 31.3096 37.1578 26.8822H37.0863C36.3003 31.2915 34.3353 38.7673 32.7812 44.6282H41.5879ZM31.2629 50.7432L28.3333 62.0658C28.2618 62.3742 28.1546 62.4468 27.7795 62.4468H22.3133C21.9382 62.4468 21.8667 62.338 21.9382 61.8843L32.4954 24.36C32.6741 23.6886 32.7991 23.0717 32.8706 21.2209C32.8706 20.9487 32.9777 20.8398 33.1742 20.8398H40.9805C41.2485 20.8398 41.3556 20.9124 41.4271 21.2209L53.2526 61.9569C53.3241 62.2654 53.2526 62.4468 52.9489 62.4468H46.7861C46.4824 62.4468 46.3038 62.3742 46.2323 62.1021L43.1777 50.7432H31.2629Z" fill="#FF7F18"/>
<defs>
<radialGradient id="paint0_radial_167_573" cx="0" cy="0" r="1" gradientUnits="userSpaceOnUse" gradientTransform="translate(30.958 22.6217) scale(62.1406 61.1128)">
<stop stop-color="#423325" stop-opacity="0.98"/>
<stop offset="1" stop-color="#1C0A00"/>
</radialGradient>
</defs>
</svg>
