<svg width="22" height="20" viewBox="0 0 22 20" fill="none" xmlns="http://www.w3.org/2000/svg">
<path d="M9.79329 0.857627C10.0931 -0.0626499 11.3951 -0.0626491 11.6949 0.857628L13.446 6.23203C13.5801 6.64365 13.9639 6.92223 14.3968 6.92223H20.0576C21.0269 6.92223 21.4293 8.16326 20.6443 8.73202L16.0694 12.0467C15.7179 12.3013 15.5709 12.7536 15.7053 13.1662L17.4539 18.5329C17.7539 19.4537 16.7006 20.2207 15.9164 19.6525L11.3308 16.3301C10.9808 16.0765 10.5074 16.0765 10.1574 16.3301L5.57183 19.6525C4.78757 20.2207 3.73428 19.4537 4.0343 18.5329L5.78288 13.1662C5.91733 12.7536 5.77025 12.3013 5.41879 12.0467L0.843917 8.73202C0.0589103 8.16326 0.461241 6.92223 1.43064 6.92223H7.09139C7.52432 6.92223 7.90808 6.64365 8.04219 6.23202L9.79329 0.857627Z" fill="#070707"/>
</svg>
