<svg width="59" height="90" viewBox="0 0 59 90" fill="none" xmlns="http://www.w3.org/2000/svg">
<g clip-path="url(#clip0_167_597)">
<path d="M15.0513 89.4829C23.0898 89.4829 29.61 82.8599 29.61 74.6946V59.9062H15.0513C7.0128 59.9062 0.492676 66.5292 0.492676 74.6946C0.492676 82.8599 7.0128 89.4829 15.0513 89.4829Z" fill="#0ACF83"/>
<path d="M0.492676 45.1008C0.492676 36.9355 7.0128 30.3125 15.0513 30.3125H29.61V59.9073H15.0513C7.0128 59.8891 0.492676 53.2661 0.492676 45.1008Z" fill="#A259FF"/>
<path d="M0.492676 15.5051C0.492676 7.33979 7.0128 0.716797 15.0513 0.716797H29.61V30.3116H15.0513C7.0128 30.3116 0.492676 23.6704 0.492676 15.5051Z" fill="#F24E1E"/>
<path d="M29.6279 0.716797H44.1866C52.2251 0.716797 58.7452 7.33979 58.7452 15.5051C58.7452 23.6704 52.2251 30.2934 44.1866 30.2934H29.6279V0.716797Z" fill="#FF7262"/>
<path d="M58.7452 45.1008C58.7452 53.2661 52.2251 59.8891 44.1866 59.8891C36.1481 59.8891 29.6279 53.2661 29.6279 45.1008C29.6279 36.9355 36.1481 30.3125 44.1866 30.3125C52.2251 30.3125 58.7452 36.9355 58.7452 45.1008Z" fill="#1ABCFE"/>
</g>
<defs>
<clipPath id="clip0_167_597">
<rect width="58.2524" height="88.7662" fill="white" transform="translate(0.492676 0.716797)"/>
</clipPath>
</defs>
</svg>
