<svg width="22" height="20" viewBox="0 0 22 20" fill="none" xmlns="http://www.w3.org/2000/svg">
<path d="M10.1817 0.857627C10.4816 -0.0626499 11.7835 -0.0626491 12.0833 0.857628L13.8344 6.23203C13.9685 6.64365 14.3523 6.92223 14.7852 6.92223H20.446C21.4154 6.92223 21.8177 8.16326 21.0327 8.73202L16.4578 12.0467C16.1064 12.3013 15.9593 12.7536 16.0937 13.1662L17.8423 18.5329C18.1423 19.4537 17.089 20.2207 16.3048 19.6525L11.7192 16.3301C11.3692 16.0765 10.8958 16.0765 10.5458 16.3301L5.96025 19.6525C5.176 20.2207 4.12271 19.4537 4.42273 18.5329L6.1713 13.1662C6.30576 12.7536 6.15868 12.3013 5.80722 12.0467L1.23234 8.73202C0.447338 8.16326 0.849669 6.92223 1.81906 6.92223H7.47982C7.91274 6.92223 8.29651 6.64365 8.43062 6.23202L10.1817 0.857627Z" fill="#E5E5E5"/>
</svg>
